:SAMPLES-PER-SECOND 30
:FULLY-SPECIFIED
:DEGREES
32
root  2.68709 39.8247 -0.36965 39.0279 -82.6174 -43.2809
RightUpLeg  -0.0116945 -2.12234 8.46772
RightLeg  7.67151 -14.2686 -1.66941
RightFoot  -2.89153 -0.172633 2.13039
RightToes  5.82063e-011 0 -3.6325e-017
Spine  4.17499 -2.29729 3.80316
Spine1  5.3369 -3.15469 4.68829
HEad  3.33883 -11.8585 -4.13825
LeftShoulder1  2.8432 -6.68871 -21.5486
LeftArm  3.85868 5.58488 -53.1293
LeftForeArm  9.69971 -6.38889 -14.7063
LeftHand  -0.443255 1.01344 11.7413
RightShoulder  1.68093 3.30145 18.2046
RightArm  -3.36269 -0.618921 55.7717
RightForeArm  26.6556 -0.121046 15.4088
RightHand  -0.13767 -4.44779 -15.4479
LeftUpLeg  -7.0854 -4.49313 9.31784
LeftLeg  20.2748 5.58905 2.60552
LeftFoot  -8.16585 0.299671 -9.05522
LeftToes  3.99265e-010 -1.33173e-010 6.75004e-011
33
root  2.68304 39.8227 -0.368473 38.9022 -82.5678 -43.1293
RightUpLeg  -0.0289628 -2.1012 8.49089
RightLeg  7.66425 -14.3313 -1.68273
RightFoot  -2.89489 -0.175789 2.17937
RightToes  5.82063e-011 0 -3.6325e-017
Spine  4.15694 -2.32296 3.79408
Spine1  5.38732 -3.18132 4.67218
HEad  3.18286 -11.8026 -4.14916
LeftShoulder1  2.81927 -6.58922 -21.5887
LeftArm  3.45093 5.77997 -53.2194
LeftForeArm  9.58896 -6.47362 -14.6284
LeftHand  -0.435568 1.10492 11.7726
RightShoulder  1.66304 3.19167 18.3551
RightArm  -3.4916 -0.630926 55.8171
RightForeArm  26.7881 0.0544025 15.3573
RightHand  -0.155663 -4.27519 -14.9404
LeftUpLeg  -7.12538 -4.48582 9.33548
LeftLeg  20.2841 5.55369 2.59221
LeftFoot  -8.1848 0.296135 -9.01334
LeftToes  3.99265e-010 -1.33173e-010 6.75004e-011
34
root  2.68091 39.8192 -0.368273 38.9762 -82.5248 -43.1314
RightUpLeg  -0.110144 -2.0684 8.52718
RightLeg  7.67974 -14.3803 -1.6975
RightFoot  -2.9044 -0.179027 2.2296
RightToes  5.82063e-011 0 -3.6325e-017
Spine  4.06722 -2.32549 3.73347
Spine1  5.4871 -3.21418 4.77133
HEad  2.95619 -11.7886 -4.23992
LeftShoulder1  2.79506 -6.48545 -21.6394
LeftArm  2.92636 5.97616 -53.3243
LeftForeArm  9.18116 -6.58193 -14.5408
LeftHand  -0.409358 1.3019 11.5741
RightShoulder  1.64456 3.08579 18.4848
RightArm  -3.35341 -0.688002 55.821
RightForeArm  26.7139 0.334047 15.333
RightHand  -0.170385 -4.14701 -14.795
LeftUpLeg  -7.23092 -4.48164 9.36747
LeftLeg  20.3262 5.55161 2.59611
LeftFoot  -8.22422 0.293209 -8.98043
LeftToes  3.99265e-010 -1.33173e-010 6.75004e-011
35
root  2.67749 39.8164 -0.365833 39.0831 -82.5184 -43.1684
RightUpLeg  -0.207938 -2.063 8.53199
RightLeg  7.73768 -14.3734 -1.70692
RightFoot  -2.93355 -0.179033 2.22969
RightToes  5.82063e-011 0 -3.6325e-017
Spine  3.94687 -2.32095 3.68163
Spine1  5.62801 -3.23467 4.85057
HEad  2.6919 -11.7592 -4.30828
LeftShoulder1  2.76608 -6.36637 -21.6859
LeftArm  2.61496 6.12397 -53.4227
LeftForeArm  8.94848 -6.68013 -14.4766
LeftHand  -0.398427 1.42782 11.6069
RightShoulder  1.63543 3.01816 18.614
RightArm  -3.30441 -0.796915 55.8046
RightForeArm  26.5533 0.585925 15.2984
RightHand  -0.186485 -4.04259 -15.0794
LeftUpLeg  -7.32202 -4.49805 9.37402
LeftLeg  20.3702 5.58056 2.61288
LeftFoot  -8.24853 0.292211 -8.97702
LeftToes  3.99265e-010 -1.33173e-010 6.75004e-011
36
root  2.66915 39.815 -0.364933 39.1181 -82.517 -43.1965
RightUpLeg  -0.219523 -2.07293 8.53441
RightLeg  7.77159 -14.3631 -1.70967
RightFoot  -2.96745 -0.17756 2.20683
RightToes  5.82063e-011 0 -3.6325e-017
Spine  3.86152 -2.31703 3.6562
Spine1  5.78223 -3.24591 4.86745
HEad  2.47348 -11.7019 -4.26656
LeftShoulder1  2.72603 -6.22004 -21.696
LeftArm  2.62271 6.17547 -53.525
LeftForeArm  9.19507 -6.69275 -14.4651
LeftHand  -0.409764 1.44644 11.9957
RightShoulder  1.63179 2.97606 18.7339
RightArm  -3.48975 -0.916802 55.8096
RightForeArm  26.5661 0.673667 15.2523
RightHand  -0.188125 -4.04734 -15.2857
LeftUpLeg  -7.33502 -4.53112 9.37801
LeftLeg  20.4139 5.58661 2.62034
LeftFoot  -8.26121 0.292456 -8.99845
LeftToes  3.99265e-010 -1.33173e-010 6.75004e-011
37
root  2.65771 39.8141 -0.367288 39.1767 -82.5041 -43.2887
RightUpLeg  -0.158852 -2.06874 8.56206
RightLeg  7.75658 -14.3796 -1.70647
RightFoot  -2.98707 -0.177848 2.21131
RightToes  5.82063e-011 0 -3.6325e-017
Spine  3.7974 -2.31077 3.61779
Spine1  5.9359 -3.25376 4.89935
HEad  2.32535 -11.6492 -4.17517
LeftShoulder1  2.69366 -6.09777 -21.7169
LeftArm  2.72955 6.14512 -53.5752
LeftForeArm  9.62146 -6.59592 -14.5011
LeftHand  -0.418781 1.43211 12.2208
RightShoulder  1.62526 2.93894 18.8002
RightArm  -3.66632 -0.985181 55.834
RightForeArm  26.711 0.576335 15.2399
RightHand  -0.161652 -4.24541 -15.18
LeftUpLeg  -7.30228 -4.54188 9.40388
LeftLeg  20.4566 5.55746 2.61332
LeftFoot  -8.28424 0.292398 -9.02065
LeftToes  3.99265e-010 -1.33173e-010 6.75004e-011
38
root  2.64904 39.8128 -0.369892 39.3208 -82.516 -43.4335
RightUpLeg  -0.149651 -2.06258 8.5749
RightLeg  7.77016 -14.3661 -1.70623
RightFoot  -3.00543 -0.179229 2.23273
RightToes  5.82063e-011 0 -3.6325e-017
Spine  3.70102 -2.28145 3.55831
Spine1  6.08447 -3.24324 4.95058
HEad  2.17654 -11.6182 -4.10494
LeftShoulder1  2.68679 -6.05891 -21.7616
LeftArm  2.74816 6.11806 -53.5416
LeftForeArm  9.8082 -6.48009 -14.5426
LeftHand  -0.413906 1.42729 12.0623
RightShoulder  1.62121 2.90515 18.8472
RightArm  -3.69889 -0.99325 55.8117
RightForeArm  26.7758 0.386576 15.2673
RightHand  -0.132632 -4.4654 -15.0707
LeftUpLeg  -7.29541 -4.51096 9.41894
LeftLeg  20.4804 5.54197 2.60967
LeftFoot  -8.30454 0.290707 -9.01972
LeftToes  3.99265e-010 -1.33173e-010 6.75004e-011
39
root  2.64461 39.8102 -0.371126 39.4452 -82.5568 -43.515
RightUpLeg  -0.224204 -2.07421 8.55024
RightLeg  7.84833 -14.3037 -1.713
RightFoot  -3.04449 -0.179291 2.23369
RightToes  5.82063e-011 0 -3.6325e-017
Spine  3.57004 -2.24426 3.52072
Spine1  6.23997 -3.20934 4.93596
HEad  1.92546 -11.5961 -3.98874
LeftShoulder1  2.6861 -6.06823 -21.7249
LeftArm  2.61789 6.14484 -53.5378
LeftForeArm  9.87713 -6.41949 -14.5495
LeftHand  -0.413802 1.39428 11.9623
RightShoulder  1.62121 2.87738 18.9556
RightArm  -3.78699 -1.00609 55.7158
RightForeArm  26.7833 0.22233 15.2793
RightHand  -0.132772 -4.46842 -15.1387
LeftUpLeg  -7.33143 -4.48214 9.40214
LeftLeg  20.4935 5.56428 2.62027
LeftFoot  -8.30824 0.287969 -9.00207
LeftToes  3.99265e-010 -1.33173e-010 6.75004e-011
40
root  2.63934 39.8063 -0.374818 39.5048 -82.5689 -43.5453
RightUpLeg  -0.277233 -2.08128 8.54547
RightLeg  7.9121 -14.2706 -1.71825
RightFoot  -3.09156 -0.178368 2.21938
RightToes  5.82063e-011 0 -3.6325e-017
Spine  3.44323 -2.21956 3.51979
Spine1  6.43027 -3.17496 4.86012
HEad  1.52995 -11.5477 -3.74423
LeftShoulder1  2.66389 -6.04188 -21.5596
LeftArm  2.2635 6.16986 -53.6702
LeftForeArm  10.2552 -6.3557 -14.5203
LeftHand  -0.430964 1.3021 12.1908
RightShoulder  1.62412 2.85862 19.1078
RightArm  -3.96321 -1.09993 55.5921
RightForeArm  26.779 0.192672 15.2561
RightHand  -0.147844 -4.35221 -15.1678
LeftUpLeg  -7.37077 -4.49876 9.40187
LeftLeg  20.5338 5.59058 2.6357
LeftFoot  -8.32729 0.286155 -8.99971
LeftToes  3.99265e-010 -1.33173e-010 6.75004e-011
41
root  2.62956 39.8028 -0.383426 39.6371 -82.5406 -43.6853
RightUpLeg  -0.253357 -2.06087 8.59561
RightLeg  7.90774 -14.2989 -1.71688
RightFoot  -3.11428 -0.177891 2.21197
RightToes  5.82063e-011 0 -3.6325e-017
Spine  3.33542 -2.18677 3.50885
Spine1  6.64753 -3.14332 4.8246
HEad  1.06747 -11.4077 -3.4255
LeftShoulder1  2.63044 -5.97286 -21.4001
LeftArm  1.6986 6.12031 -53.8464
LeftForeArm  10.9502 -6.20305 -14.4877
LeftHand  -0.447006 1.23048 12.4392
RightShoulder  1.63104 2.8617 19.2088
RightArm  -3.85666 -1.28963 55.4613
RightForeArm  26.5038 0.35152 15.2608
RightHand  -0.141285 -4.39999 -15.1139
LeftUpLeg  -7.37997 -4.52111 9.45266
LeftLeg  20.5923 5.58973 2.64191
LeftFoot  -8.37552 0.285681 -9.01982
LeftToes  3.99265e-010 -1.33173e-010 6.75004e-011
